<?xml version="1.0" encoding="utf-8"?>
<svg viewBox="0 0 500 500" xmlns="http://www.w3.org/2000/svg">
  <g transform="matrix(0.1, 0, 0, -0.1, 521.108093, 267.117371)" fill="none" stroke="none">
    <path d="M -4342.898 1375.077 C -4450.215 1352.563 -4493.304 1314.773 -4634.768 1116.978 C -4803.873 883.001 -4798.182 901.494 -4798.182 553.342 C -4798.182 263.082 -4795.743 245.393 -4742.085 175.441 C -4694.93 113.53 -4633.955 87.8 -4489.239 67.7 C -4325.011 44.382 -4338.833 50.815 -4327.45 0.159 C -4316.068 -49.691 -4273.792 -124.467 -4230.702 -167.886 C -4141.271 -258.743 -4005.499 -300.553 -3881.109 -274.823 C -3766.475 -251.506 -3662.41 -174.318 -3614.442 -77.028 L -3590.865 -29.589 L -2684.361 -29.589 L -1777.856 -29.589 L -1754.279 -77.028 C -1705.499 -175.926 -1590.864 -258.743 -1473.791 -278.04 C -1268.1 -312.614 -1068.1 -167.886 -1032.328 41.166 C -1004.685 204.387 -1094.929 370.021 -1250.214 443.188 C -1306.312 469.722 -1322.572 473.742 -1390.051 476.155 C -1484.36 480.175 -1551.027 464.094 -1617.694 422.284 C -1712.003 361.176 -1776.23 267.103 -1791.677 164.185 C -1796.556 135.239 -1801.434 107.098 -1803.06 102.274 C -1807.125 86.997 -3561.597 86.997 -3565.662 102.274 C -3567.288 107.098 -3572.166 135.239 -3577.044 164.185 C -3592.491 267.103 -3656.719 361.176 -3751.028 422.284 C -3817.694 464.094 -3884.361 480.175 -3978.67 476.155 C -4045.337 473.742 -4062.41 469.722 -4115.255 443.993 C -4148.589 428.716 -4191.678 402.182 -4210.377 386.101 C -4255.093 347.508 -4303.873 274.339 -4321.759 218.056 C -4338.833 163.381 -4332.328 164.989 -4481.109 188.306 C -4537.207 197.151 -4585.174 204.387 -4588.426 204.387 C -4602.247 204.387 -4655.093 258.258 -4664.849 282.38 C -4672.979 300.873 -4676.231 351.527 -4676.231 465.701 L -4676.231 622.49 L -4627.45 622.49 C -4588.426 622.49 -4576.231 625.707 -4562.41 640.179 C -4544.524 659.477 -4541.272 686.814 -4554.28 710.935 C -4564.036 728.624 -4603.873 743.098 -4644.524 743.098 L -4676.231 743.098 L -4676.231 777.671 C -4675.418 796.165 -4668.914 829.934 -4661.597 852.448 C -4645.337 899.082 -4446.963 1178.89 -4403.873 1216.679 C -4368.914 1246.429 -4306.312 1265.727 -4242.898 1265.727 C -4200.621 1265.727 -4195.743 1264.118 -4199.808 1252.058 C -4203.06 1244.018 -4238.832 1180.497 -4279.483 1109.742 C -4336.393 1011.649 -4354.28 973.054 -4356.719 944.913 C -4360.784 899.886 -4341.272 859.684 -4302.247 833.954 L -4275.418 815.461 L -3046.962 815.461 C -2342.084 815.461 -1759.97 812.245 -1681.108 807.421 C -1430.702 792.948 -1208.751 759.178 -1040.458 710.131 C -951.84 684.402 -822.572 627.315 -822.572 614.45 C -822.572 609.626 -844.523 606.409 -871.352 606.409 C -926.637 606.409 -952.653 589.525 -952.653 553.342 C -952.653 502.688 -920.133 485.803 -821.759 485.803 L -757.531 485.803 L -757.531 313.738 C -757.531 152.928 -758.344 140.867 -773.791 121.571 C -784.36 108.706 -802.246 98.254 -820.946 95.037 C -892.49 82.172 -912.815 13.024 -854.279 -17.529 C -788.425 -50.495 -668.913 21.869 -643.71 111.118 C -637.206 134.435 -634.767 206.799 -637.206 345.899 L -639.645 546.107 L -665.661 599.977 C -702.246 677.166 -747.775 722.192 -825.824 758.374 C -1016.881 848.428 -1316.881 908.73 -1660.783 926.419 L -1787.612 933.656 L -2046.962 1096.877 C -2190.052 1186.93 -2338.832 1276.179 -2379.482 1294.672 C -2473.791 1339.698 -2573.791 1367.84 -2677.044 1378.292 C -2798.182 1390.353 -4284.361 1387.941 -4342.898 1375.077 Z M -3692.491 1100.897 L -3692.491 936.069 L -3964.849 936.069 L -4238.019 936.069 L -4228.263 954.561 C -4222.572 964.21 -4180.296 1038.182 -4133.954 1119.39 L -4048.589 1265.727 L -3870.54 1265.727 L -3692.491 1265.727 L -3692.491 1100.897 Z M -3007.938 1112.958 C -2996.556 1030.945 -2985.987 957.778 -2985.987 950.541 C -2985.174 936.872 -3004.686 936.069 -3277.857 936.069 L -3570.54 936.069 L -3570.54 1095.269 C -3570.54 1182.91 -3568.101 1257.686 -3564.849 1260.098 C -3561.597 1263.314 -3440.458 1264.922 -3294.93 1264.118 L -3029.889 1261.707 L -3007.938 1112.958 Z M -2578.67 1239.193 C -2536.393 1227.936 -2477.043 1208.64 -2447.775 1194.971 C -2403.873 1175.673 -2162.409 1029.337 -2050.214 954.561 L -2021.759 936.069 L -2441.271 936.069 L -2860.783 936.069 L -2881.922 1087.229 C -2894.117 1170.045 -2903.873 1244.821 -2903.873 1252.862 C -2903.873 1267.335 -2898.182 1268.138 -2779.483 1263.314 C -2688.426 1259.294 -2635.58 1253.666 -2578.67 1239.193 Z M -3831.515 329.014 C -3738.019 278.36 -3688.426 189.11 -3694.117 83.78 C -3707.125 -134.919 -3965.662 -239.445 -4133.954 -93.913 C -4150.215 -79.441 -4175.418 -43.258 -4190.052 -14.313 C -4212.816 31.518 -4216.881 47.598 -4216.881 99.861 C -4216.881 152.124 -4212.816 168.206 -4190.052 214.036 C -4159.971 275.143 -4114.442 316.954 -4052.654 341.879 C -3991.678 366.001 -3890.052 360.372 -3831.515 329.014 Z M -1318.507 341.879 C -1229.076 308.11 -1162.409 222.076 -1150.214 125.591 C -1135.58 -2.252 -1232.328 -130.899 -1364.848 -157.432 C -1473.791 -179.947 -1596.555 -119.643 -1649.401 -17.529 C -1679.482 40.363 -1684.36 127.199 -1660.783 189.11 C -1632.328 262.278 -1573.791 319.366 -1498.181 345.899 C -1453.466 361.98 -1366.474 359.568 -1318.507 341.879 Z" style="fill: rgb(255, 255, 255);"/>
    <path d="M -4000.625 126.55 C -4067.625 61.55 -4079.625 45.55 -4079.625 16.55 C -4079.625 -25.45 -4049.625 -56.45 -4007.625 -56.45 C -3981.625 -56.45 -3962.625 -43.45 -3897.625 21.55 C -3810.625 108.55 -3801.625 136.55 -3844.625 178.55 C -3886.625 221.55 -3912.625 212.55 -4000.625 126.55 Z" style="fill: rgb(255, 255, 255);"/>
    <path d="M -1544.867 162.654 C -1587.867 120.654 -1578.867 92.654 -1491.867 5.654 C -1426.867 -59.346 -1407.867 -72.346 -1381.867 -72.346 C -1339.867 -72.346 -1309.867 -41.346 -1309.867 0.654 C -1309.867 29.654 -1321.867 45.654 -1388.867 110.654 C -1476.867 196.654 -1502.867 205.654 -1544.867 162.654 Z" style="fill: rgb(255, 255, 255);"/>
    <path d="M -3349.855 317.339 C -3367.166 291.65 -3365.781 247.611 -3347.085 222.839 L -3331.851 202.654 L -2729.413 202.654 L -2126.282 202.654 L -2108.971 229.261 C -2090.274 257.703 -2091.659 289.815 -2111.741 320.092 C -2122.128 334.771 -2160.905 335.689 -2730.105 335.689 C -3329.774 335.689 -3337.391 335.689 -3349.855 317.339 Z" style="fill: rgb(255, 255, 255);"/>
  </g>
</svg>