<?xml version="1.0" encoding="utf-8"?>
<svg viewBox="0 0 250 200" xmlns="http://www.w3.org/2000/svg">
  <circle cx="57.512" cy="72.915" r="10.489" transform="matrix(1.358758, 0.301742, -0.328769, 1.247062, 38.304657, -25.464649)" stroke="#A7A6A2" stroke-width="1.799" style=""/>
  <path d="M 180.7 148.097 L 137.979 114.16 L 133.752 118.64 L 147.789 129.793 C 148.269 130.172 148.886 130.373 149.519 130.354 L 150.549 130.323 C 151.55 130.301 152.393 131.005 152.464 131.922 C 152.533 132.849 153.406 133.548 154.415 133.488 C 155.419 133.419 156.291 134.113 156.365 135.036 L 156.402 135.531 C 156.447 136.106 156.738 136.64 157.213 137.016 L 158.645 138.154 C 159.115 138.528 159.755 138.671 160.362 138.537 C 161.649 138.249 162.862 139.213 162.738 140.424 C 162.679 140.993 162.924 141.554 163.396 141.929 L 164.269 142.623 C 164.97 143.178 165.945 143.336 166.81 143.033 L 166.969 142.979 C 167.834 142.677 168.811 142.835 169.511 143.39 L 169.573 143.439 C 170.147 143.894 170.448 144.576 170.384 145.268 C 170.295 146.205 170.875 147.088 171.817 147.454 L 175.799 149.004 C 176.367 149.224 177.003 149.246 177.587 149.065 L 180.7 148.097 Z" fill="#BFBFBF" style=""/>
  <path d="M 180.701 148.1 L 137.98 114.162 L 142.206 109.68 L 156.243 120.832 C 156.722 121.212 157.027 121.744 157.097 122.321 L 157.211 123.263 C 157.329 124.177 158.211 124.841 159.211 124.773 C 160.218 124.703 161.098 125.396 161.178 126.32 C 161.249 127.241 162.122 127.936 163.127 127.869 L 163.666 127.832 C 164.291 127.791 164.909 127.978 165.385 128.356 L 166.816 129.492 C 167.287 129.867 167.533 130.427 167.474 130.998 C 167.348 132.21 168.561 133.174 169.851 132.886 C 170.456 132.751 171.094 132.893 171.567 133.268 L 172.441 133.961 C 173.141 134.518 173.451 135.381 173.25 136.21 L 173.211 136.363 C 173.011 137.191 173.321 138.056 174.02 138.612 L 174.083 138.662 C 174.656 139.118 175.433 139.293 176.17 139.134 C 177.167 138.922 178.203 139.321 178.735 140.124 L 180.975 143.518 C 181.295 144.002 181.409 144.577 181.297 145.134 L 180.701 148.1 Z" fill="#A7A6A2" style=""/>
  <path d="M 101.713 114.969 C 100.323 114.255 99.997 112.55 101.04 111.444 L 129.664 81.094 C 130.734 79.959 132.683 80.049 133.624 81.279 L 148.331 100.512 C 148.992 101.378 148.927 102.546 148.174 103.348 L 126.964 125.838 C 126.183 126.666 124.874 126.876 123.833 126.341 L 101.713 114.969 Z" fill="#1B292E" style=""/>
  <rect x="94.565" y="125.082" width="25.408" height="6.213" rx="2.31" transform="matrix(0.686113, -0.727495, 0.785814, 0.624276, -51.958607, 99.288078)" fill="#fff" style=""/>
  <rect x="85.105" y="102.441" width="3.08" height="25.92" rx="1.155" transform="matrix(0.686113, -0.727495, 0.785814, 0.624276, -37.59346, 84.942459)" fill="#C4C4C4" style=""/>
  <rect x="41.244" y="101.502" width="35.665" height="62.896" rx="1.799" transform="matrix(0.928088, 0.37236, -0.40698, 0.914198, 64.133659, -9.014857)" fill="#2C2926" style=""/>
  <path d="M 65.298 101.566 C 66.78 98.347 70.825 96.839 74.336 98.198 L 86.251 102.82 C 89.759 104.182 91.403 107.895 89.92 111.116 L 65.297 101.566 L 65.298 101.566 Z" fill="#2C2926" style=""/>
  <path d="M 68.474 102.797 C 69.215 101.187 71.238 100.432 72.994 101.113 L 84.114 105.426 C 85.868 106.106 86.69 107.964 85.949 109.574 L 68.474 102.797 Z" fill="#fff" style=""/>
  <rect x="73.119" y="94.716" width="3.407" height="24.171" rx="1.234" transform="matrix(0.932322, 0.36163, -0.419056, 0.910047, 57.606647, -29.795147)" fill="#C4C4C4" style=""/>
  <path d="M 101.312 36.923 L 128.617 35.352 C 130.397 35.249 131.499 33.523 130.726 32.048 L 125.288 21.675 C 124.792 20.732 123.667 20.212 122.547 20.409 L 101.163 24.195 C 100.937 24.234 100.717 24.303 100.513 24.398 C 95.676 26.649 86.045 31.576 83.097 34.726 C 82.959 34.876 82.847 35.045 82.766 35.228 C 79.753 41.72 73.672 56.084 72.072 64.577 C 72.011 64.895 72.019 65.227 72.225 65.489 C 73.124 66.629 76.162 67.966 79.09 65.477 C 82.29 62.46 87.737 55.881 87.639 50.314 L 87.873 48.575 C 87.943 48.043 88.216 47.549 88.642 47.18 L 99.742 37.549 C 100.169 37.178 100.726 36.958 101.312 36.923 Z" fill="#822111" style=""/>
  <path d="M 188.453 7.178 C 194.384 7.803 202.572 8.331 206.822 8.633 C 208.281 8.737 209.067 10.184 208.474 11.621 L 197.342 38.513 C 196.875 39.641 195.72 40.24 194.608 39.937 L 183.43 36.879 C 182.775 36.701 182.082 36.827 181.52 37.227 C 175.551 41.446 162.428 49.416 150.996 52.11 C 150.887 52.136 150.778 52.171 150.673 52.214 C 143.912 54.936 129.48 60.982 123.861 64.17 C 123.691 64.268 123.541 64.383 123.397 64.521 C 119.437 68.288 109.237 74.883 103.095 84.131 C 103.025 84.236 102.951 84.334 102.867 84.425 C 102.068 85.287 100.602 86.621 99.624 86.73 C 99.291 86.767 98.942 86.654 98.652 86.478 C 97.932 86.041 96.874 84.679 96.175 81.432 C 96.132 81.227 96.111 81.016 96.117 80.806 C 96.176 76.489 94.775 71.514 115.292 54.971 C 115.592 54.73 115.835 54.415 116.002 54.054 C 116.927 52 119.306 46.717 121.878 43.25 C 122.892 41.881 122.858 39.639 121.623 38.498 C 120.843 37.784 120.098 37.028 119.39 36.234 C 118.178 34.862 115.653 34.243 114.267 35.412 C 109.991 39.024 104.066 43.762 100.395 45.846 C 99.509 46.35 98.907 47.321 98.904 48.398 C 98.904 55.213 98.021 66.728 96.424 70.611 C 94.932 74.243 93.079 77.476 89.78 77.8 C 88.71 77.905 87.906 76.896 87.827 75.745 L 85.758 45.744 C 85.72 45.194 85.851 44.646 86.131 44.183 L 107.926 8.133 C 108.353 7.422 109.085 6.99 109.873 6.98 L 152.913 6.439 C 161.601 5.646 180.3 6.321 188.453 7.178 Z" fill="#CB7154" style=""/>
  <text style="fill: rgb(66, 104, 227); font-family: Arial, sans-serif; font-size: 16.4px; font-weight: 700; white-space: pre;" transform="matrix(0.372159, -0.785142, 1.025238, 0.45421, -99.604614, 139.719223)" x="55.608" y="135.784">DRIVE</text>
  <text style="white-space: pre; fill: rgb(51, 51, 51); font-family: Arial, sans-serif; font-size: 16.4px;" x="-66.134" y="279.533"><tspan x="-66.13400268554688" dy="1em">​</tspan></text>
</svg>