<?xml version="1.0" encoding="utf-8"?>
<svg viewBox="192.09 109.921 126.159 138.131" xmlns="http://www.w3.org/2000/svg">
  <path d="M118.081 12.677a1.886 1.886 0 0 0-1.971-1.797l-89.485 4.14a1.886 1.886 0 0 0-1.797 1.971l.493 10.652a1.886 1.886 0 0 1-.571 1.441l-5.235 5.077c-.387.376-.595.9-.57 1.44l1.98 43.284c.026.54.281 1.044.702 1.384l5.68 4.571c.422.339.677.842.702 1.382l2.63 56.39a1.886 1.886 0 0 0 1.971 1.796l89.486-4.14a1.886 1.886 0 0 0 1.797-1.971l-5.812-125.62Z" transform="matrix(1, 0, 0, 1, 177.078016, 101.32733)" style="fill: rgb(66, 104, 227);"/>
  <rect x="47.289" y="11.504" width="90.906" height="119.181" rx="1.886" transform="matrix(0.997481, 0.07094, -0.07094, 0.997481, 178.013258, 98.001544)" fill="#2C2926"/>
  <rect x="37.575" y="23.143" width="85.393" height="107.43" rx="1.886" fill="#FFF5F0" transform="matrix(1, 0, 0, 1, 177.078016, 101.32733)"/>
  <rect x="214.653" y="129.368" width="85.393" height="107.43" fill="#FFF5F0"/>
  <path d="M 224.156 211.566 L 263.846 211.566 M 224.156 201.485 L 275.672 201.159 M 224.156 191.404 L 288.501 191.404 M 224.156 181.324 L 288.501 181.324 M 224.156 171.703 L 255.323 171.703 L 265.173 171.703 L 288.501 171.703" stroke="#999791" stroke-opacity=".16" stroke-width="2.217" stroke-linecap="round" style=""/>
  <path d="M 97.919 114.153 L 101.866 118.591 C 102.771 119.676 104.504 119.416 105.052 118.114 L 114.552 101.182" stroke-width="2.217" stroke-linecap="round" transform="matrix(1, 0, 0, 1, 177.078016, 101.32733)" style="stroke: rgb(66, 104, 227); fill: rgb(255, 245, 240);"/>
  <path d="M 224.083 160.712 L 288.428 160.712 M 224.083 150.632 L 288.428 150.632 M 224.083 141.011 L 255.25 141.011 L 265.1 141.011 L 288.428 141.011" stroke="#999791" stroke-opacity=".16" stroke-width="2.217" stroke-linecap="round" style=""/>
</svg>