<?xml version="1.0" encoding="utf-8"?>
<svg viewBox="0 0 500 500" xmlns="http://www.w3.org/2000/svg">
  <g transform="matrix(0.090206, 0, 0, -0.091754, 86.437889, 416.031097)" fill="#000000" stroke="none" >
    <g transform="matrix(1.108574, 0, 0, 1.089871, 343.963158, -387.856422)" fill="#000000" stroke="none">
      <g transform="matrix(1, 0, 0, 1, -312.577395, -968.507021)" fill="#000000" stroke="none"/>
    </g>
  </g>
  <g transform="matrix(0.1, 0, 0, -0.1, -6.730206, 450.826569)" fill="#000000" stroke="none">
    <path d="M2598 3460 c-21 -16 -28 -30 -28 -57 0 -31 19 -58 151 -217 l152 -181 -251 -5 c-228 -5 -252 -7 -271 -24 -14 -13 -21 -31 -21 -56 0 -73 -58 -68 855 -73 882 -5 920 -7 1192 -62 248 -50 516 -157 560 -224 13 -19 23 -38 23 -42 0 -5 -43 -9 -95 -9 -105 0 -135 -14 -135 -66 0 -63 40 -84 161 -84 l79 0 0 -134 c0 -154 -11 -180 -78 -192 -88 -16 -113 -102 -41 -140 81 -41 228 49 259 159 8 29 10 115 8 267 -3 223 -3 226 -31 282 -48 97 -130 154 -337 231 -257 96 -493 140 -848 158 l-204 10 -327 218 c-179 120 -349 226 -376 236 -37 13 -90 19 -210 22 -153 5 -161 4 -187 -17z m374 -161 c39 -20 421 -271 442 -290 6 -5 -65 -9 -166 -9 l-177 0 -130 158 c-72 86 -131 161 -131 166 0 15 118 -3 162 -25z" style="fill: rgb(194, 194, 194);"/>
    <path d="M1687 3384 c-59 -18 -129 -84 -147 -138 -6 -20 -15 -35 -18 -34 -194 103 -180 103 -794 -12 -329 -61 -510 -100 -544 -115 -64 -28 -122 -85 -154 -150 l-25 -50 0 -385 0 -385 27 -52 c58 -110 149 -168 279 -180 l74 -6 41 -51 c182 -229 514 -243 713 -31 33 36 61 70 61 75 0 6 465 10 1279 10 1240 0 1280 -1 1286 -19 9 -31 127 -137 184 -166 190 -96 423 -52 566 107 274 305 60 788 -349 788 -146 0 -257 -49 -355 -156 -84 -92 -120 -189 -121 -326 l0 -78 -1210 0 -1210 0 0 78 c0 175 -78 319 -222 412 -82 53 -164 73 -280 68 -82 -3 -103 -8 -168 -39 -178 -85 -293 -273 -278 -455 3 -30 2 -57 -2 -59 -15 -9 -87 18 -114 43 -52 49 -56 72 -56 312 l0 220 73 0 c89 0 140 22 188 79 47 54 59 98 59 215 0 53 1 96 3 96 2 0 172 31 378 70 205 38 398 70 427 70 73 0 106 -16 231 -114 175 -139 277 -176 478 -176 110 0 125 2 143 20 27 27 26 81 0 105 -14 12 -41 20 -80 23 l-60 4 0 107 c0 95 -3 113 -25 158 -31 62 -81 102 -149 120 -61 16 -68 16 -129 -3z m131 -166 c20 -19 22 -31 22 -115 0 -51 -2 -93 -5 -93 -14 0 -113 44 -137 61 -23 17 -28 27 -28 62 1 100 82 146 148 85z m-1498 -328 c0 -73 -3 -83 -25 -105 -20 -21 -34 -25 -85 -25 l-60 0 0 35 c0 87 74 168 158 174 9 1 12 -21 12 -79z m629 -485 c195 -106 230 -358 72 -516 -161 -160 -421 -111 -522 100 -18 35 -23 65 -23 126 -1 71 3 88 32 147 37 76 93 128 169 159 75 30 200 23 272 -16z m3331 16 c78 -30 134 -81 172 -159 28 -57 33 -77 33 -142 0 -65 -5 -85 -33 -142 -56 -114 -160 -181 -282 -182 -178 -1 -317 128 -328 304 -7 136 58 248 180 309 52 26 73 31 134 31 49 0 91 -7 124 -19z" style="fill: rgb(194, 194, 194);"/>
    <path d="M747 2172 c-64 -64 -77 -83 -77 -110 0 -41 30 -72 71 -72 26 0 45 14 105 73 88 86 101 121 61 161 -45 45 -73 36 -160 -52z" style="fill: rgb(194, 194, 194);"/>
    <path d="M4055 2225 c-43 -42 -34 -70 53 -157 65 -65 84 -78 110 -78 42 0 72 31 72 73 0 29 -12 45 -79 110 -88 86 -114 95 -156 52z" style="fill: rgb(194, 194, 194);"/>
    <path d="M1461 2324 c-27 -35 -26 -57 3 -91 l24 -28 992 0 992 0 25 29 c27 31 25 66 -4 99 -15 16 -76 17 -1014 17 l-998 0 -20 -26z" style="fill: rgb(194, 194, 194);"/>
  </g>
</svg>