<?xml version="1.0" encoding="utf-8"?>
<svg viewBox="0 0 500 500" xmlns="http://www.w3.org/2000/svg">
  <path style="stroke: none; fill: rgb(194, 194, 194);" d="M 67.708 113.508 C 50.392 116.585 31.345 130.353 17.708 140.933 C 13.208 144.425 6.394 148.337 3.736 153.523 C -0.304 161.405 4.718 172.142 1.356 180.508 C -4.784 195.789 -5.292 206.974 -5.292 223.508 C -5.292 228.936 -6.635 236.538 -3.974 241.468 C 2.312 253.113 24.223 253.93 35.708 255.508 C 40.662 256.188 47.564 258.358 50.708 253.508 L 51.708 253.508 C 55.772 299.757 133.645 299.757 137.708 253.508 L 138.708 253.508 C 141.325 257.545 146.314 256.508 150.708 256.508 L 180.708 256.508 L 307.708 256.508 L 341.708 256.508 C 346.28 256.508 351.968 257.735 354.708 253.508 L 355.708 253.508 C 359.771 299.757 437.645 299.757 441.708 253.508 C 445.683 257.261 450.496 256.566 455.708 256.504 C 467.216 256.367 496.218 257.914 504.055 248.294 C 508.65 242.655 506.708 232.298 506.708 225.508 C 506.708 205.614 508.151 182.599 489.524 169.246 C 481.73 163.66 466.021 163.771 456.708 161.908 C 429.242 156.413 400.745 152.752 373.708 145.454 C 364.821 143.055 356.63 135.533 348.708 130.932 C 332.841 121.719 316.655 113.567 299.708 106.52 C 257.967 89.162 218.909 88.915 174.708 89.512 C 155.826 89.767 136.157 93.69 117.708 97.511 C 110.561 98.991 102.966 102.433 95.708 102.859 C 87.66 103.331 76.701 93.465 69.026 97.115 C 64.548 99.245 66.821 109.779 67.708 113.508 Z"/>
  <path style="fill:#ffffff; stroke:none;" d="M 74.708 106.508 C 74.469 109.896 75.263 115.317 73.642 118.295 C 70.995 123.16 61.433 125.394 56.708 127.755 C 44.773 133.719 24.249 142.37 17.708 154.508 C 26.498 155.207 36.222 157.126 44.704 159.566 C 47.642 160.411 51.429 162.667 49.622 166.298 C 47.151 171.265 36.505 173.389 31.708 175.308 C 14.019 182.384 2.708 187.379 2.708 208.508 C 7.051 208.508 26.073 205.942 26.073 212.508 C 26.073 219.074 7.051 216.508 2.708 216.508 L 3.736 236.32 L 16.708 242.854 L 50.708 249.508 C 50.708 235.848 53.216 223.966 63.137 213.794 C 83.429 192.988 119.692 197.347 133.445 223.508 C 137.961 232.098 138.708 239.987 138.708 249.508 L 183.708 248.508 L 271.708 248.508 L 325.708 248.508 L 354.708 249.508 C 354.708 235.848 357.216 223.966 367.136 213.794 C 387.429 192.988 423.692 197.348 437.445 223.508 C 441.961 232.098 442.708 239.987 442.708 249.508 L 480.708 245.483 L 496.966 241.994 L 498.708 230.508 L 498.708 200.508 C 482.718 197.495 463.366 197.513 448.708 190.26 C 445.336 188.592 432.665 184.397 435.794 178.822 C 437.543 175.707 442.763 176.509 445.708 176.508 C 454.411 176.504 468.573 173.787 476.645 177.111 C 485.538 180.774 473.339 184.501 469.708 184.508 L 461.708 184.508 L 461.708 185.508 L 492.708 190.508 C 484.477 173.108 468.789 173.525 451.708 170.108 C 424.659 164.697 394.914 162.259 368.708 153.723 C 363.652 152.076 359.659 148.384 354.708 146.508 C 353.582 153.569 347.564 152.508 341.708 152.508 L 304.708 152.508 L 197.708 152.508 C 178.98 152.508 157.914 155.213 139.708 150.353 C 126.431 146.808 114.902 138.899 106.008 128.508 C 104.203 126.399 93.903 113.144 102.727 113.144 C 107.148 113.144 110.525 120.612 113.008 123.508 C 119.39 130.953 127.642 136.396 136.708 140.055 C 158.841 148.987 188.28 144.508 211.708 144.508 C 206.601 130.602 202.749 112.326 202.708 97.508 L 132.708 103.922 L 94.708 112.321 L 74.708 106.508 M 210.708 97.508 C 213.426 111.523 221.047 130.443 217.708 144.508 L 351.708 144.508 C 340.989 134.439 324.063 127.552 310.708 121.648 C 278.3 107.319 246.38 97.508 210.708 97.508 M 10.708 162.508 L 10.708 173.508 L 30.708 166.508 L 10.708 162.508 Z"/>
  <path style="stroke: none; fill: rgb(194, 194, 194);" d="M 152.312 169.536 C 149.798 171.541 151.057 175.359 153.856 176.19 C 157.607 177.304 169.95 177.995 173.104 175.48 C 175.618 173.475 174.359 169.657 171.56 168.826 C 167.809 167.712 155.466 167.021 152.312 169.536 M 240.312 169.536 C 237.798 171.541 239.057 175.359 241.856 176.19 C 245.607 177.304 257.95 177.995 261.104 175.48 C 263.618 173.475 262.359 169.657 259.56 168.826 C 255.809 167.712 243.466 167.021 240.312 169.536 Z" transform="matrix(-1, 0, 0, -1, 413.416016, 345.015991)"/>
  <path style="fill:#ffffff; stroke:none;" d="M 90.708 210.026 C 45.89 219.588 62.282 288.469 106.708 278.99 C 151.526 269.428 135.135 200.547 90.708 210.026 M 394.708 210.026 C 349.89 219.588 366.281 288.469 410.708 278.99 C 455.526 269.428 439.135 200.547 394.708 210.026 Z"/>
  <path style="stroke: none; fill: rgb(194, 194, 194);" d="M 96.311 217.54 C 92.511 220.469 94.423 236.625 101.105 231.476 C 104.905 228.547 102.993 212.391 96.311 217.54 M 400.311 217.54 C 396.511 220.469 398.423 236.625 405.105 231.476 C 408.905 228.547 406.993 212.391 400.311 217.54 M 79.313 224.54 C 74.04 228.604 84.167 239.674 89.39 236.461 C 95.788 232.525 84.62 220.45 79.313 224.54 M 112.708 224.54 C 106.689 227.477 103.617 240.671 112.708 236.461 C 119.047 233.525 122.096 219.96 112.708 224.54 M 383.312 224.54 C 378.039 228.604 388.166 239.674 393.389 236.461 C 399.787 232.525 388.62 220.45 383.312 224.54 M 416.708 224.54 C 410.689 227.477 407.617 240.671 416.708 236.461 C 423.047 233.525 426.096 219.96 416.708 224.54 Z"/>
  <path style="stroke: none; fill: rgb(194, 194, 194);" d="M 72.313 241.536 C 65.358 247.082 81.158 250.627 85.104 247.48 C 92.059 241.934 76.258 238.389 72.313 241.536 M 96.313 241.54 C 92.294 244.634 97.321 250.168 101.386 247.476 C 105.954 244.451 100.169 238.571 96.313 241.54 M 112.312 241.536 C 105.358 247.082 121.158 250.627 125.104 247.48 C 132.059 241.934 116.258 238.389 112.312 241.536 M 376.312 241.536 C 369.357 247.082 385.158 250.627 389.104 247.48 C 396.058 241.934 380.258 238.389 376.312 241.536 M 400.312 241.54 C 396.293 244.634 401.32 250.168 405.386 247.476 C 409.954 244.451 404.169 238.571 400.312 241.54 M 416.312 241.536 C 409.357 247.082 425.158 250.627 429.104 247.48 C 436.058 241.934 420.258 238.389 416.312 241.536 M 84.708 252.555 C 78.369 255.491 75.321 269.056 84.708 264.476 C 90.727 261.539 93.799 248.345 84.708 252.555 M 108.027 252.555 C 101.629 256.491 112.796 268.566 118.104 264.476 C 123.377 260.412 113.25 249.342 108.027 252.555 M 388.708 252.555 C 382.369 255.491 379.32 269.056 388.708 264.476 C 394.727 261.539 397.799 248.345 388.708 252.555 M 412.027 252.555 C 405.629 256.491 416.796 268.566 422.104 264.476 C 427.377 260.412 417.25 249.342 412.027 252.555 M 96.311 257.54 C 92.511 260.469 94.423 276.625 101.105 271.476 C 104.905 268.547 102.993 252.391 96.311 257.54 M 400.311 257.54 C 396.511 260.469 398.423 276.625 405.105 271.476 C 408.905 268.547 406.993 252.391 400.311 257.54 Z"/>
</svg>