<?xml version="1.0" encoding="utf-8"?>
<svg viewBox="0 0 550 300" xmlns="http://www.w3.org/2000/svg">
  <g transform="matrix(1, 0, 0, 1, -76.1211, -27.079436)"/>
  <g transform="matrix(1, 0, 0, 1, -76.1211, -27.079436)"/>
  <g transform="matrix(1, 0, 0, 1, -76.1211, -27.079436)"/>
  <g transform="matrix(1, 0, 0, 1, -76.1211, -27.079436)"/>
  <g transform="matrix(1, 0, 0, 1, -76.1211, -27.079436)"/>
  <g transform="matrix(1, 0, 0, 1, -76.1211, -27.079436)"/>
  <g transform="matrix(1, 0, 0, 1, -76.1211, -27.079436)"/>
  <g transform="matrix(1, 0, 0, 1, -76.1211, -27.079436)"/>
  <g transform="matrix(1, 0, 0, 1, -76.1211, -27.079436)"/>
  <g transform="matrix(1, 0, 0, 1, -76.1211, -27.079436)"/>
  <g transform="matrix(1, 0, 0, 1, -76.1211, -27.079436)"/>
  <g transform="matrix(1, 0, 0, 1, -76.1211, -27.079436)"/>
  <g transform="matrix(1, 0, 0, 1, -76.1211, -27.079436)"/>
  <g transform="matrix(1, 0, 0, 1, -76.1211, -27.079436)"/>
  <g transform="matrix(1, 0, 0, 1, -76.1211, -27.079436)"/>
  <path style="stroke: none; fill: rgb(194, 194, 194);" d="M 94.047 60.639 C 76.731 63.716 57.684 77.484 44.047 88.064 C 39.547 91.556 32.733 95.468 30.075 100.654 C 26.035 108.536 31.057 119.273 27.695 127.639 C 21.555 142.92 21.047 154.105 21.047 170.639 C 21.047 176.067 19.704 183.669 22.365 188.599 C 28.651 200.244 50.562 201.061 62.047 202.639 C 67.001 203.319 73.903 205.489 77.047 200.639 L 78.047 200.639 C 82.111 246.888 159.984 246.888 164.047 200.639 L 165.047 200.639 C 167.664 204.676 172.653 203.639 177.047 203.639 L 207.047 203.639 L 334.047 203.639 L 368.047 203.639 C 372.619 203.639 378.307 204.866 381.047 200.639 L 382.047 200.639 C 386.11 246.888 463.984 246.888 468.047 200.639 C 472.022 204.392 476.835 203.697 482.047 203.635 C 493.555 203.498 522.557 205.045 530.394 195.425 C 534.989 189.786 533.047 179.429 533.047 172.639 C 533.047 152.745 534.49 129.73 515.863 116.377 C 508.069 110.791 492.36 110.902 483.047 109.039 C 455.581 103.544 427.084 99.883 400.047 92.585 C 391.16 90.186 382.969 82.664 375.047 78.063 C 359.18 68.85 342.994 60.698 326.047 53.651 C 284.306 36.293 245.248 36.046 201.047 36.643 C 182.165 36.898 162.496 40.821 144.047 44.642 C 136.9 46.122 129.305 49.564 122.047 49.99 C 113.999 50.462 103.04 40.596 95.365 44.246 C 90.887 46.376 93.16 56.91 94.047 60.639 Z"/>
  <path style="stroke: none;" d="M 101.047 53.639 C 100.808 57.027 101.602 62.448 99.981 65.426 C 97.334 70.291 87.772 72.525 83.047 74.886 C 71.112 80.85 50.588 89.501 44.047 101.639 C 52.837 102.338 62.561 104.257 71.043 106.697 C 73.981 107.542 77.768 109.798 75.961 113.429 C 73.49 118.396 62.844 120.52 58.047 122.439 C 40.358 129.515 29.047 134.51 29.047 155.639 C 33.39 155.639 52.412 153.073 52.412 159.639 C 52.412 166.205 33.39 163.639 29.047 163.639 L 30.075 183.451 L 43.047 189.985 L 77.047 196.639 C 77.047 182.979 79.555 171.097 89.476 160.925 C 109.768 140.119 146.031 144.478 159.784 170.639 C 164.3 179.229 165.047 187.118 165.047 196.639 L 210.047 195.639 L 298.047 195.639 L 352.047 195.639 L 381.047 196.639 C 381.047 182.979 383.555 171.097 393.475 160.925 C 413.768 140.119 450.031 144.479 463.784 170.639 C 468.3 179.229 469.047 187.118 469.047 196.639 L 507.047 192.614 L 523.305 189.125 L 525.047 177.639 L 525.047 147.639 C 509.057 144.626 489.705 144.644 475.047 137.391 C 471.675 135.723 459.004 131.528 462.133 125.953 C 463.882 122.838 469.102 123.64 472.047 123.639 C 480.75 123.635 494.912 120.918 502.984 124.242 C 511.877 127.905 499.678 131.632 496.047 131.639 L 488.047 131.639 L 488.047 132.639 L 519.047 137.639 C 510.816 120.239 495.128 120.656 478.047 117.239 C 450.998 111.828 421.253 109.39 395.047 100.854 C 389.991 99.207 385.998 95.515 381.047 93.639 C 379.921 100.7 373.903 99.639 368.047 99.639 L 331.047 99.639 L 224.047 99.639 C 205.319 99.639 184.253 102.344 166.047 97.484 C 152.77 93.939 141.241 86.03 132.347 75.639 C 130.542 73.53 120.242 60.275 129.066 60.275 C 133.487 60.275 136.864 67.743 139.347 70.639 C 145.729 78.084 153.981 83.527 163.047 87.186 C 185.18 96.118 214.619 91.639 238.047 91.639 C 232.94 77.733 229.088 59.457 229.047 44.639 L 159.047 51.053 L 121.047 59.452 L 101.047 53.639 M 237.047 44.639 C 239.765 58.654 247.386 77.574 244.047 91.639 L 378.047 91.639 C 367.328 81.57 350.402 74.683 337.047 68.779 C 304.639 54.45 272.719 44.639 237.047 44.639 M 37.047 109.639 L 37.047 120.639 L 57.047 113.639 L 37.047 109.639 Z"/>
  <path style="stroke: none; fill: rgb(194, 194, 194);" d="M 178.651 116.667 C 176.137 118.672 177.396 122.49 180.195 123.321 C 183.946 124.435 196.289 125.126 199.443 122.611 C 201.957 120.606 200.698 116.788 197.899 115.957 C 194.148 114.843 181.805 114.152 178.651 116.667 M 266.651 116.667 C 264.137 118.672 265.396 122.49 268.195 123.321 C 271.946 124.435 284.289 125.126 287.443 122.611 C 289.957 120.606 288.698 116.788 285.899 115.957 C 282.148 114.843 269.805 114.152 266.651 116.667 Z" transform="matrix(-1, 0, 0, -1, 466.093994, 239.278)"/>
  <path style="stroke: none;" d="M 117.047 157.157 C 72.229 166.719 88.621 235.6 133.047 226.121 C 177.865 216.559 161.474 147.678 117.047 157.157 M 421.047 157.157 C 376.229 166.719 392.62 235.6 437.047 226.121 C 481.865 216.559 465.474 147.678 421.047 157.157 Z"/>
  <path style="stroke: none; fill: rgb(194, 194, 194);" d="M 122.65 164.671 C 118.85 167.6 120.762 183.756 127.444 178.607 C 131.244 175.678 129.332 159.522 122.65 164.671 M 426.65 164.671 C 422.85 167.6 424.762 183.756 431.444 178.607 C 435.244 175.678 433.332 159.522 426.65 164.671 M 105.652 171.671 C 100.379 175.735 110.506 186.805 115.729 183.592 C 122.127 179.656 110.959 167.581 105.652 171.671 M 139.047 171.671 C 133.028 174.608 129.956 187.802 139.047 183.592 C 145.386 180.656 148.435 167.091 139.047 171.671 M 409.651 171.671 C 404.378 175.735 414.505 186.805 419.728 183.592 C 426.126 179.656 414.959 167.581 409.651 171.671 M 443.047 171.671 C 437.028 174.608 433.956 187.802 443.047 183.592 C 449.386 180.656 452.435 167.091 443.047 171.671 Z"/>
  <path style="stroke: none; fill: rgb(194, 194, 194);" d="M 98.652 188.667 C 91.697 194.213 107.497 197.758 111.443 194.611 C 118.398 189.065 102.597 185.52 98.652 188.667 M 122.652 188.671 C 118.633 191.765 123.66 197.299 127.725 194.607 C 132.293 191.582 126.508 185.702 122.652 188.671 M 138.651 188.667 C 131.697 194.213 147.497 197.758 151.443 194.611 C 158.398 189.065 142.597 185.52 138.651 188.667 M 402.651 188.667 C 395.696 194.213 411.497 197.758 415.443 194.611 C 422.397 189.065 406.597 185.52 402.651 188.667 M 426.651 188.671 C 422.632 191.765 427.659 197.299 431.725 194.607 C 436.293 191.582 430.508 185.702 426.651 188.671 M 442.651 188.667 C 435.696 194.213 451.497 197.758 455.443 194.611 C 462.397 189.065 446.597 185.52 442.651 188.667 M 111.047 199.686 C 104.708 202.622 101.66 216.187 111.047 211.607 C 117.066 208.67 120.138 195.476 111.047 199.686 M 134.366 199.686 C 127.968 203.622 139.135 215.697 144.443 211.607 C 149.716 207.543 139.589 196.473 134.366 199.686 M 415.047 199.686 C 408.708 202.622 405.659 216.187 415.047 211.607 C 421.066 208.67 424.138 195.476 415.047 199.686 M 438.366 199.686 C 431.968 203.622 443.135 215.697 448.443 211.607 C 453.716 207.543 443.589 196.473 438.366 199.686 M 122.65 204.671 C 118.85 207.6 120.762 223.756 127.444 218.607 C 131.244 215.678 129.332 199.522 122.65 204.671 M 426.65 204.671 C 422.85 207.6 424.762 223.756 431.444 218.607 C 435.244 215.678 433.332 199.522 426.65 204.671 Z"/>
</svg>