<?xml version="1.0" encoding="utf-8"?>
<svg viewBox="0 0 500 500" xmlns="http://www.w3.org/2000/svg">
  <g transform="matrix(0.1, 0, 0, -0.1, -7.248718, 439.576508)" fill="#000000" stroke="none">
    <path d="M3165 3654 c-520 -38 -976 -140 -1435 -319 -194 -76 -339 -143 -553 -257 l-189 -100 -221 -50 c-122 -27 -257 -63 -299 -79 -177 -68 -344 -212 -441 -380 l-27 -46 0 -340 c0 -333 0 -340 21 -359 19 -17 43 -19 244 -24 l223 -5 40 -51 c52 -66 101 -106 176 -143 79 -39 133 -50 232 -51 165 0 314 76 405 208 l30 42 1178 0 1178 0 45 -58 c48 -62 148 -135 228 -166 27 -10 87 -20 146 -23 85 -5 112 -2 170 15 111 34 210 105 275 200 17 23 34 42 39 42 16 0 445 261 463 282 16 19 17 54 17 433 l0 412 -121 203 -122 203 37 74 c20 40 36 83 36 94 0 28 -16 56 -39 69 -25 13 -754 134 -936 155 -132 15 -675 28 -800 19z m602 -174 c140 -11 455 -50 463 -56 2 -3 -95 -104 -215 -224 l-220 -220 -322 0 c-178 0 -323 2 -323 4 0 21 71 490 76 497 7 12 381 12 541 -1z m-756 -255 l-34 -245 -806 1 -806 0 90 46 c282 144 703 290 1045 362 171 36 434 77 516 80 l30 1 -35 -245z m1584 139 c61 -9 114 -20 118 -24 5 -4 1 -22 -8 -40 -30 -58 -23 -80 73 -242 l92 -153 -233 -5 c-252 -5 -268 -9 -286 -61 -15 -44 -2 -68 151 -269 90 -119 141 -177 158 -181 14 -4 82 -7 153 -8 l127 -1 0 -144 0 -145 -126 -75 c-69 -42 -126 -76 -128 -76 -1 0 -3 24 -5 53 -10 253 -247 477 -506 477 -284 0 -536 -265 -511 -537 l5 -63 -340 0 -341 0 5 23 c3 12 34 223 68 469 l64 447 372 3 373 3 287 288 c223 223 293 287 308 283 11 -2 70 -12 130 -22z m-1645 -562 c0 -5 -29 -212 -65 -462 -36 -250 -65 -457 -65 -462 0 -4 -310 -8 -689 -8 l-688 0 -5 103 c-9 185 -93 328 -247 421 -93 56 -143 69 -261 69 -118 0 -168 -13 -262 -69 -157 -95 -248 -258 -248 -446 l0 -78 -130 0 -130 0 0 170 0 170 85 0 85 0 0 85 0 85 -75 0 c-41 0 -75 4 -75 9 0 20 97 136 152 182 119 99 182 125 463 189 l210 48 973 1 c534 1 972 -3 972 -7z m1990 -162 l0 -90 -105 0 -104 0 -61 79 c-33 44 -60 85 -60 90 0 7 56 11 165 11 l165 0 0 -90z m-3887 -366 c65 -22 149 -101 184 -172 38 -77 40 -200 5 -276 -34 -75 -84 -129 -154 -167 -58 -32 -69 -34 -153 -34 -76 0 -99 4 -146 26 -151 71 -229 239 -185 394 20 67 36 96 85 148 89 96 230 127 364 81z m3248 -3 c73 -28 130 -80 169 -153 45 -85 53 -193 20 -280 -47 -126 -161 -208 -299 -216 -99 -5 -170 20 -244 88 -236 215 -65 612 251 584 29 -2 75 -13 103 -23z" style="fill: rgb(194, 194, 194);"/>
    <path d="M2210 2555 l0 -85 170 0 170 0 0 85 0 85 -170 0 -170 0 0 -85z" style="fill: rgb(194, 194, 194);"/>
  </g>
</svg>