<?xml version="1.0" encoding="utf-8"?>
<svg viewBox="0 0 550 300" xmlns="http://www.w3.org/2000/svg">
  <g transform="matrix(1, 0, 0, 1, -76.1211, -27.079436)"/>
  <g transform="matrix(1, 0, 0, 1, -76.1211, -27.079436)"/>
  <g transform="matrix(1, 0, 0, 1, -76.1211, -27.079436)"/>
  <g transform="matrix(1, 0, 0, 1, -76.1211, -27.079436)"/>
  <g transform="matrix(1, 0, 0, 1, -76.1211, -27.079436)"/>
  <g transform="matrix(1, 0, 0, 1, -76.1211, -27.079436)"/>
  <g transform="matrix(1, 0, 0, 1, -76.1211, -27.079436)"/>
  <g transform="matrix(1, 0, 0, 1, -76.1211, -27.079436)"/>
  <g transform="matrix(1, 0, 0, 1, -76.1211, -27.079436)"/>
  <g transform="matrix(1, 0, 0, 1, -76.1211, -27.079436)"/>
  <g transform="matrix(1, 0, 0, 1, -76.1211, -27.079436)"/>
  <g transform="matrix(1, 0, 0, 1, -76.1211, -27.079436)"/>
  <g transform="matrix(1, 0, 0, 1, -76.1211, -27.079436)"/>
  <g transform="matrix(1, 0, 0, 1, -76.1211, -27.079436)"/>
  <g transform="matrix(1, 0, 0, 1, -76.1211, -27.079436)"/>
  <g transform="matrix(0.103068, 0, 0, -0.10606, -157.838852, 329.519012)" fill="#000000" stroke="none" style="">
    <path d="M5164 2855 l-71 -34 -17 -71 c-38 -154 -32 -210 20 -210 36 0 50 23 63 107 14 83 26 104 70 123 25 10 40 5 142 -44 136 -65 243 -133 321 -205 103 -94 186 -247 207 -380 14 -84 4 -91 -128 -91 -176 -1 -306 -28 -431 -91 -100 -50 -128 -100 -76 -135 24 -15 28 -14 93 24 125 72 306 111 466 98 l79 -5 55 41 56 42 -6 81 c-16 225 -156 450 -370 594 -99 66 -357 192 -390 190 -6 0 -44 -16 -83 -34z" style="fill: rgb(194, 194, 194);"/>
    <path d="M4682 2804 c-21 -14 -22 -23 -22 -133 0 -151 2 -153 124 -150 96 3 97 2 177 -93 l40 -47 -46 -31 -45 -31 -33 22 c-17 12 -61 44 -97 69 -115 84 -123 86 -350 104 -113 9 -236 21 -273 28 -60 10 -75 9 -120 -7 -64 -22 -80 -36 -172 -150 -133 -164 -156 -185 -203 -185 -23 0 -50 4 -60 9 -9 6 -64 24 -122 41 -58 17 -123 37 -145 45 -22 7 -87 27 -145 45 -58 17 -139 42 -180 55 -163 51 -173 53 -195 45 -12 -5 -24 -17 -27 -27 -12 -49 11 -66 137 -101 64 -18 121 -35 305 -93 36 -12 101 -32 145 -46 44 -13 109 -34 145 -45 137 -43 153 -44 216 -17 48 20 68 38 122 104 35 44 94 113 130 153 l65 73 76 -4 c110 -7 452 -37 476 -42 19 -4 110 -65 232 -154 59 -43 86 -40 168 19 38 28 73 50 76 50 10 0 29 58 29 87 0 17 -29 54 -96 123 l-96 99 -77 3 -76 3 0 45 0 45 123 3 c118 3 123 4 133 26 27 59 -23 76 -225 76 -67 0 -98 -4 -114 -16z" style="fill: rgb(194, 194, 194);"/>
    <path d="M2408 2680 c-265 -5 -267 -5 -292 -29 -23 -21 -26 -33 -26 -86 0 -51 4 -65 23 -82 12 -11 121 -85 242 -165 121 -80 348 -229 505 -333 352 -231 393 -260 398 -273 1 -5 -14 -23 -35 -40 l-38 -30 -40 28 c-73 52 -139 87 -220 115 -73 26 -92 28 -215 28 -123 0 -142 -2 -215 -28 -124 -44 -183 -81 -280 -179 -74 -74 -98 -107 -132 -176 -126 -260 -81 -582 109 -781 124 -129 240 -191 421 -224 85 -16 106 -17 170 -5 122 21 149 30 246 77 161 79 276 210 344 393 23 62 29 97 34 197 3 72 10 126 17 131 6 5 25 14 41 20 17 5 38 13 48 17 15 6 17 1 17 -41 1 -163 41 -296 110 -364 89 -90 46 -85 721 -88 524 -2 598 -1 609 13 10 12 9 35 -5 119 -16 100 -19 345 -4 360 3 4 12 4 20 1 11 -4 14 -33 15 -138 0 -118 3 -140 29 -212 91 -262 282 -426 554 -477 121 -22 129 -22 296 14 79 17 216 92 289 159 108 99 191 243 215 373 15 83 13 218 -4 300 -18 86 -83 220 -142 292 -112 138 -304 236 -486 250 -147 11 -310 -28 -420 -101 l-54 -36 -38 25 c-44 30 -67 32 -89 10 -26 -26 -18 -50 32 -98 71 -70 90 -71 177 -6 22 16 74 44 115 62 68 29 87 32 200 36 116 4 131 2 202 -22 98 -34 155 -66 217 -122 199 -179 255 -464 139 -704 -54 -111 -160 -220 -265 -274 -160 -80 -365 -83 -526 -6 -132 62 -242 179 -301 321 -31 73 -31 77 -31 243 l0 170 -55 24 c-30 13 -57 26 -59 28 -3 2 8 31 24 64 28 58 28 60 10 80 -24 26 -56 25 -82 -2 -28 -31 -70 -136 -84 -212 -13 -74 -17 -275 -5 -368 l8 -68 -525 0 -525 0 -53 28 c-98 51 -120 128 -118 424 0 109 -2 202 -6 208 -3 5 -22 10 -40 10 -41 0 -55 -20 -55 -80 0 -54 -12 -74 -52 -90 -18 -8 -61 -26 -96 -42 -34 -15 -67 -28 -72 -28 -13 0 -13 -1 -15 -155 -1 -107 -5 -141 -24 -195 -37 -102 -79 -169 -155 -245 -119 -119 -243 -168 -416 -168 -52 0 -117 6 -144 12 -204 49 -384 226 -431 426 -17 70 -19 209 -5 286 28 154 155 317 307 395 97 51 156 64 281 64 97 0 150 -9 208 -35 17 -8 40 -18 50 -22 35 -15 114 -68 114 -77 0 -4 -14 -24 -30 -43 -32 -36 -31 -53 5 -83 23 -19 41 -8 203 125 140 115 157 137 134 171 -4 6 -88 64 -187 129 -99 65 -317 209 -485 320 -168 111 -358 236 -423 279 -65 43 -116 83 -114 89 3 9 101 13 371 15 l367 2 -6 -34 c-9 -46 8 -76 44 -76 39 0 54 21 59 84 5 65 -7 90 -58 116 -43 22 -9 21 -562 10z" style="fill: rgb(194, 194, 194);"/>
    <path d="M5392 1468 c-7 -7 -12 -24 -12 -39 0 -21 18 -40 102 -105 56 -43 109 -83 118 -89 9 -5 29 -20 45 -32 25 -21 27 -25 15 -53 -20 -49 -30 -52 -95 -21 -33 16 -85 40 -116 55 -77 36 -112 42 -132 21 -23 -22 -21 -51 3 -72 13 -12 20 -30 20 -54 0 -47 61 -169 107 -214 20 -19 63 -48 96 -65 53 -26 71 -30 146 -30 78 0 94 3 156 34 86 41 124 81 166 170 28 60 33 81 33 145 0 105 -36 183 -116 255 -74 67 -148 96 -245 96 -38 0 -73 -4 -78 -9 -6 -5 -27 -14 -48 -21 -35 -11 -41 -10 -76 14 -40 28 -70 33 -89 14z m390 -122 c66 -30 109 -71 138 -131 43 -88 16 -210 -61 -282 -114 -104 -307 -73 -381 62 -43 78 -40 80 59 33 94 -44 127 -43 171 8 66 75 90 157 60 196 -7 9 -44 39 -81 66 -59 44 -66 52 -50 61 30 18 90 12 145 -13z" style="fill: rgb(194, 194, 194);"/>
    <path d="M2596 1450 c-94 -36 -157 -94 -207 -190 -21 -39 -24 -59 -24 -145 0 -89 3 -106 27 -150 37 -72 100 -132 171 -166 53 -25 74 -29 147 -29 73 0 93 4 145 29 109 52 185 154 200 267 6 40 4 54 -10 67 -23 24 -42 21 -118 -13 -37 -16 -73 -30 -82 -30 -14 0 -75 93 -75 115 0 6 46 43 101 84 108 80 128 105 110 140 -21 38 -65 28 -147 -36 -40 -32 -96 -75 -123 -96 -78 -59 -76 -86 15 -233 48 -78 108 -114 139 -85 6 5 20 12 33 16 34 10 28 -15 -13 -52 -60 -55 -92 -68 -176 -68 -67 0 -81 3 -124 30 -170 105 -161 345 17 434 35 18 77 31 98 31 41 0 60 14 60 45 0 54 -72 69 -164 35z" style="fill: rgb(194, 194, 194);"/>
  </g>
</svg>