<?xml version="1.0" encoding="utf-8"?>
<svg viewBox="0 0 550 300" xmlns="http://www.w3.org/2000/svg">
  <g transform="matrix(1, 0, 0, 1, -76.1211, -27.079436)"/>
  <g transform="matrix(1, 0, 0, 1, -76.1211, -27.079436)"/>
  <g transform="matrix(1, 0, 0, 1, -76.1211, -27.079436)"/>
  <g transform="matrix(1, 0, 0, 1, -76.1211, -27.079436)"/>
  <g transform="matrix(1, 0, 0, 1, -76.1211, -27.079436)"/>
  <g transform="matrix(1, 0, 0, 1, -76.1211, -27.079436)"/>
  <g transform="matrix(1, 0, 0, 1, -76.1211, -27.079436)"/>
  <g transform="matrix(1, 0, 0, 1, -76.1211, -27.079436)"/>
  <g transform="matrix(1, 0, 0, 1, -76.1211, -27.079436)"/>
  <g transform="matrix(1, 0, 0, 1, -76.1211, -27.079436)"/>
  <g transform="matrix(1, 0, 0, 1, -76.1211, -27.079436)"/>
  <g transform="matrix(1, 0, 0, 1, -76.1211, -27.079436)"/>
  <g transform="matrix(1, 0, 0, 1, -76.1211, -27.079436)"/>
  <g transform="matrix(1, 0, 0, 1, -76.1211, -27.079436)"/>
  <g transform="matrix(1, 0, 0, 1, -76.1211, -27.079436)"/>
  <g transform="matrix(0.103068, 0, 0, -0.10606, -157.838852, 329.519012)" fill="none" stroke="none" style="">
    <path style="stroke: none; fill: rgb(194, 194, 194);" d="M 2482.208 2468.125 C 2314.202 2439.113 2129.402 2309.3 1997.091 2209.545 C 1953.431 2176.62 1887.319 2139.736 1861.531 2090.839 C 1822.333 2016.522 1871.058 1915.287 1838.439 1836.407 C 1778.867 1692.329 1773.938 1586.869 1773.938 1430.976 C 1773.938 1379.798 1760.908 1308.121 1786.726 1261.638 C 1847.714 1151.842 2060.302 1144.139 2171.733 1129.26 C 2219.799 1122.849 2286.764 1102.389 2317.268 1148.118 L 2326.971 1148.118 C 2366.401 712.053 3121.951 712.053 3161.371 1148.118 L 3171.074 1148.118 C 3196.465 1110.054 3244.87 1119.832 3287.502 1119.832 L 3578.572 1119.832 L 4810.768 1119.832 L 5140.647 1119.832 C 5185.006 1119.832 5240.193 1108.263 5266.777 1148.118 L 5276.48 1148.118 C 5315.9 712.053 6071.459 712.053 6110.88 1148.118 C 6149.447 1112.732 6196.144 1119.285 6246.713 1119.87 C 6358.367 1121.161 6639.754 1106.575 6715.791 1197.279 C 6760.374 1250.447 6741.532 1348.099 6741.532 1412.119 C 6741.532 1599.692 6755.532 1816.692 6574.807 1942.593 C 6499.187 1995.261 6346.773 1994.214 6256.415 2011.78 C 5989.931 2063.59 5713.443 2098.108 5451.122 2166.918 C 5364.897 2189.538 5285.425 2260.46 5208.563 2303.841 C 5054.616 2390.707 4897.574 2467.569 4733.149 2534.012 C 4328.164 2697.675 3949.21 2700.003 3520.358 2694.375 C 3337.158 2691.97 3146.323 2654.982 2967.325 2618.955 C 2897.982 2605.001 2824.293 2572.547 2753.873 2568.531 C 2675.789 2564.08 2569.461 2657.103 2494.996 2622.689 C 2451.549 2602.606 2473.602 2503.285 2482.208 2468.125 Z"/>
    <path style="stroke: none; fill: rgb(30, 30, 30);" d="M 2550.124 2534.126 C 2547.806 2502.181 2555.509 2451.069 2539.782 2422.99 C 2514.1 2377.12 2421.326 2356.057 2375.482 2333.796 C 2259.685 2277.563 2060.554 2195.996 1997.091 2081.552 C 2082.375 2074.961 2176.72 2056.867 2259.016 2033.862 C 2287.521 2025.894 2324.264 2004.623 2306.732 1970.388 C 2282.757 1923.556 2179.466 1903.53 2132.924 1885.436 C 1961.3 1818.719 1851.557 1771.623 1851.557 1572.406 C 1893.694 1572.406 2078.251 1596.6 2078.251 1534.691 C 2078.251 1472.783 1893.694 1496.977 1851.557 1496.977 L 1861.531 1310.177 L 1987.389 1248.57 L 2317.268 1185.832 C 2317.268 1314.627 2341.602 1426.658 2437.859 1522.566 C 2634.738 1718.738 2986.574 1677.639 3120.01 1430.976 C 3163.826 1349.985 3171.074 1275.602 3171.074 1185.832 L 3607.679 1195.261 L 4461.484 1195.261 L 4985.41 1195.261 L 5266.777 1185.832 C 5266.777 1314.627 5291.111 1426.658 5387.358 1522.566 C 5584.247 1718.738 5936.083 1677.629 6069.519 1430.976 C 6113.335 1349.985 6120.582 1275.602 6120.582 1185.832 L 6489.271 1223.782 L 6647.011 1256.679 L 6663.913 1364.976 L 6663.913 1647.835 C 6508.773 1676.243 6321.013 1676.074 6178.796 1744.459 C 6146.08 1760.186 6023.142 1799.739 6053.5 1852.304 C 6070.47 1881.674 6121.116 1874.112 6149.689 1874.122 C 6234.129 1874.16 6371.533 1899.777 6449.85 1868.436 C 6536.133 1833.899 6417.775 1798.759 6382.545 1798.693 L 6304.927 1798.693 L 6304.927 1789.264 L 6605.699 1742.121 C 6525.839 1906.179 6373.629 1902.247 6207.903 1934.465 C 5945.465 1985.483 5656.869 2008.47 5402.61 2088.953 C 5353.555 2104.482 5314.813 2139.293 5266.777 2156.981 C 5255.852 2090.405 5197.464 2100.409 5140.647 2100.409 L 4781.661 2100.409 L 3743.511 2100.409 C 3561.806 2100.409 3357.417 2074.904 3180.776 2120.728 C 3051.958 2154.152 2940.1 2228.723 2853.807 2326.696 C 2836.295 2346.581 2736.361 2471.557 2821.974 2471.557 C 2864.868 2471.557 2897.633 2401.144 2921.724 2373.839 C 2983.644 2303.643 3063.708 2252.323 3151.669 2217.824 C 3366.411 2133.607 3652.038 2175.838 3879.344 2175.838 C 3829.794 2306.952 3792.421 2479.27 3792.023 2618.983 L 3112.86 2558.508 L 2744.171 2479.317 L 2550.124 2534.126 M 3869.641 2618.983 C 3896.012 2486.841 3969.954 2308.451 3937.558 2175.838 L 5237.67 2175.838 C 5133.671 2270.775 4969.449 2335.71 4839.875 2391.376 C 4525.441 2526.479 4215.743 2618.983 3869.641 2618.983 M 1929.175 2006.123 L 1929.175 1902.408 L 2123.222 1968.408 L 1929.175 2006.123 Z"/>
    <path style="stroke: none; fill: rgb(194, 194, 194);" d="M 3303.065 1939.858 C 3278.673 1920.954 3290.888 1884.955 3318.045 1877.12 C 3354.438 1866.617 3474.194 1860.101 3504.795 1883.814 C 3529.187 1902.719 3516.972 1938.717 3489.815 1946.553 C 3453.422 1957.056 3333.666 1963.571 3303.065 1939.858 M 4156.87 1939.858 C 4132.478 1920.954 4144.693 1884.955 4171.85 1877.12 C 4208.244 1866.617 4328 1860.101 4358.601 1883.814 C 4382.992 1902.719 4370.777 1938.717 4343.62 1946.553 C 4307.227 1957.056 4187.471 1963.571 4156.87 1939.858 Z" transform="matrix(-1, 0, 0, -1, 7661.665283, 3823.672485)"/>
    <path style="stroke: none; fill: rgb(30, 30, 30);" d="M 2705.362 1558.093 C 2270.523 1467.937 2429.563 818.484 2860.599 907.857 C 3295.438 998.014 3136.407 1647.467 2705.362 1558.093 M 5654.87 1558.093 C 5220.031 1467.937 5379.062 818.484 5810.108 907.857 C 6244.947 998.014 6085.916 1647.467 5654.87 1558.093 Z"/>
    <path style="stroke: none; fill: rgb(194, 194, 194);" d="M 2759.724 1487.247 C 2722.855 1459.63 2741.406 1307.301 2806.237 1355.849 C 2843.106 1383.466 2824.555 1535.794 2759.724 1487.247 M 5709.233 1487.247 C 5672.364 1459.63 5690.915 1307.301 5755.746 1355.849 C 5792.614 1383.466 5774.064 1535.794 5709.233 1487.247 M 2594.804 1421.246 C 2543.643 1382.928 2641.899 1278.553 2692.574 1308.847 C 2754.65 1345.959 2646.294 1459.809 2594.804 1421.246 M 2918.813 1421.246 C 2860.415 1393.554 2830.609 1269.153 2918.813 1308.847 C 2980.316 1336.53 3009.898 1464.429 2918.813 1421.246 M 5544.303 1421.246 C 5493.142 1382.928 5591.398 1278.553 5642.073 1308.847 C 5704.149 1345.959 5595.803 1459.809 5544.303 1421.246 M 5868.322 1421.246 C 5809.923 1393.554 5780.118 1269.153 5868.322 1308.847 C 5929.825 1336.53 5959.407 1464.429 5868.322 1421.246 Z"/>
    <path style="stroke: none; fill: rgb(194, 194, 194);" d="M 2526.887 1260.997 C 2459.408 1208.706 2612.704 1175.282 2650.99 1204.953 C 2718.47 1257.245 2565.163 1290.669 2526.887 1260.997 M 2759.743 1260.96 C 2720.75 1231.787 2769.523 1179.609 2808.963 1204.991 C 2853.283 1233.513 2797.155 1288.953 2759.743 1260.96 M 2914.971 1260.997 C 2847.501 1208.706 3000.798 1175.282 3039.083 1204.953 C 3106.563 1257.245 2953.256 1290.669 2914.971 1260.997 M 5476.386 1260.997 C 5408.907 1208.706 5562.213 1175.282 5600.499 1204.953 C 5667.969 1257.245 5514.672 1290.669 5476.386 1260.997 M 5709.242 1260.96 C 5670.249 1231.787 5719.022 1179.609 5758.472 1204.991 C 5802.792 1233.513 5746.664 1288.953 5709.242 1260.96 M 5864.48 1260.997 C 5797 1208.706 5950.306 1175.282 5988.592 1204.953 C 6056.062 1257.245 5902.765 1290.669 5864.48 1260.997 M 2647.148 1157.103 C 2585.645 1129.421 2556.072 1001.521 2647.148 1044.705 C 2705.546 1072.396 2735.352 1196.798 2647.148 1157.103 M 2873.396 1157.103 C 2811.321 1119.992 2919.667 1006.141 2971.167 1044.705 C 3022.327 1083.022 2924.072 1187.397 2873.396 1157.103 M 5596.656 1157.103 C 5535.153 1129.421 5505.571 1001.521 5596.656 1044.705 C 5655.055 1072.396 5684.86 1196.798 5596.656 1157.103 M 5822.905 1157.103 C 5760.83 1119.992 5869.176 1006.141 5920.676 1044.705 C 5971.836 1083.022 5873.58 1187.397 5822.905 1157.103 M 2759.724 1110.101 C 2722.855 1082.485 2741.406 930.156 2806.237 978.704 C 2843.106 1006.321 2824.555 1158.649 2759.724 1110.101 M 5709.233 1110.101 C 5672.364 1082.485 5690.915 930.156 5755.746 978.704 C 5792.614 1006.321 5774.064 1158.649 5709.233 1110.101 Z"/>
  </g>
</svg>